<mxfile host="app.diagrams.net" modified="2023-08-25T01:16:35.313Z" agent="Mozilla/5.0 (Macintosh; Intel Mac OS X 10_15_7) AppleWebKit/537.36 (KHTML, like Gecko) Chrome/116.0.0.0 Safari/537.36" etag="ze6DMH_RvuUWeqzvUX9x" version="21.6.9" type="github">
  <diagram id="C5RBs43oDa-KdzZeNtuy" name="Page-1">
    <mxGraphModel dx="3165" dy="1565" grid="1" gridSize="10" guides="1" tooltips="1" connect="1" arrows="1" fold="1" page="1" pageScale="1" pageWidth="827" pageHeight="1169" math="0" shadow="0">
      <root>
        <mxCell id="WIyWlLk6GJQsqaUBKTNV-0" />
        <mxCell id="WIyWlLk6GJQsqaUBKTNV-1" parent="WIyWlLk6GJQsqaUBKTNV-0" />
        <mxCell id="4txpGATy8WF8CyshaqeH-10" style="edgeStyle=orthogonalEdgeStyle;rounded=0;orthogonalLoop=1;jettySize=auto;html=1;exitX=1;exitY=0.5;exitDx=0;exitDy=0;entryX=1;entryY=0.5;entryDx=0;entryDy=0;" edge="1" parent="WIyWlLk6GJQsqaUBKTNV-1" source="WIyWlLk6GJQsqaUBKTNV-6" target="4txpGATy8WF8CyshaqeH-4">
          <mxGeometry relative="1" as="geometry">
            <Array as="points">
              <mxPoint x="359" y="232" />
              <mxPoint x="359" y="112" />
            </Array>
          </mxGeometry>
        </mxCell>
        <mxCell id="4txpGATy8WF8CyshaqeH-38" value="No" style="edgeLabel;html=1;align=center;verticalAlign=middle;resizable=0;points=[];" vertex="1" connectable="0" parent="4txpGATy8WF8CyshaqeH-10">
          <mxGeometry x="0.1067" y="-3" relative="1" as="geometry">
            <mxPoint x="7" as="offset" />
          </mxGeometry>
        </mxCell>
        <mxCell id="4txpGATy8WF8CyshaqeH-16" style="edgeStyle=orthogonalEdgeStyle;rounded=0;orthogonalLoop=1;jettySize=auto;html=1;exitX=0.5;exitY=1;exitDx=0;exitDy=0;" edge="1" parent="WIyWlLk6GJQsqaUBKTNV-1" source="WIyWlLk6GJQsqaUBKTNV-6">
          <mxGeometry relative="1" as="geometry">
            <mxPoint x="289" y="292" as="targetPoint" />
          </mxGeometry>
        </mxCell>
        <mxCell id="4txpGATy8WF8CyshaqeH-37" value="Yes" style="edgeLabel;html=1;align=center;verticalAlign=middle;resizable=0;points=[];" vertex="1" connectable="0" parent="4txpGATy8WF8CyshaqeH-16">
          <mxGeometry x="-0.1" y="-1" relative="1" as="geometry">
            <mxPoint x="21" as="offset" />
          </mxGeometry>
        </mxCell>
        <mxCell id="WIyWlLk6GJQsqaUBKTNV-6" value="각 input 값이 &lt;br&gt;조건에 맞는가?" style="rhombus;whiteSpace=wrap;html=1;shadow=0;fontFamily=Helvetica;fontSize=12;align=center;strokeWidth=1;spacing=6;spacingTop=-4;" parent="WIyWlLk6GJQsqaUBKTNV-1" vertex="1">
          <mxGeometry x="229" y="182" width="120" height="80" as="geometry" />
        </mxCell>
        <mxCell id="4txpGATy8WF8CyshaqeH-0" value="goods_register.php" style="text;html=1;strokeColor=none;fillColor=none;align=center;verticalAlign=middle;whiteSpace=wrap;rounded=0;" vertex="1" parent="WIyWlLk6GJQsqaUBKTNV-1">
          <mxGeometry x="269" y="58" width="60" height="30" as="geometry" />
        </mxCell>
        <mxCell id="4txpGATy8WF8CyshaqeH-8" value="" style="edgeStyle=orthogonalEdgeStyle;rounded=0;orthogonalLoop=1;jettySize=auto;html=1;" edge="1" parent="WIyWlLk6GJQsqaUBKTNV-1" source="4txpGATy8WF8CyshaqeH-2" target="4txpGATy8WF8CyshaqeH-4">
          <mxGeometry relative="1" as="geometry" />
        </mxCell>
        <mxCell id="4txpGATy8WF8CyshaqeH-2" value="시작" style="ellipse;whiteSpace=wrap;html=1;" vertex="1" parent="WIyWlLk6GJQsqaUBKTNV-1">
          <mxGeometry x="59" y="82" width="110" height="60" as="geometry" />
        </mxCell>
        <mxCell id="4txpGATy8WF8CyshaqeH-9" style="edgeStyle=orthogonalEdgeStyle;rounded=0;orthogonalLoop=1;jettySize=auto;html=1;exitX=0.5;exitY=1;exitDx=0;exitDy=0;entryX=0.5;entryY=0;entryDx=0;entryDy=0;" edge="1" parent="WIyWlLk6GJQsqaUBKTNV-1" source="4txpGATy8WF8CyshaqeH-4" target="WIyWlLk6GJQsqaUBKTNV-6">
          <mxGeometry relative="1" as="geometry" />
        </mxCell>
        <mxCell id="4txpGATy8WF8CyshaqeH-4" value="상품정보 입력" style="shape=parallelogram;perimeter=parallelogramPerimeter;whiteSpace=wrap;html=1;fixedSize=1;fillColor=#dae8fc;strokeColor=#6c8ebf;" vertex="1" parent="WIyWlLk6GJQsqaUBKTNV-1">
          <mxGeometry x="229" y="82" width="120" height="60" as="geometry" />
        </mxCell>
        <mxCell id="4txpGATy8WF8CyshaqeH-33" style="edgeStyle=orthogonalEdgeStyle;rounded=0;orthogonalLoop=1;jettySize=auto;html=1;exitX=1;exitY=0.5;exitDx=0;exitDy=0;entryX=0;entryY=0.5;entryDx=0;entryDy=0;" edge="1" parent="WIyWlLk6GJQsqaUBKTNV-1" source="4txpGATy8WF8CyshaqeH-15" target="4txpGATy8WF8CyshaqeH-22">
          <mxGeometry relative="1" as="geometry" />
        </mxCell>
        <mxCell id="4txpGATy8WF8CyshaqeH-15" value="GoodsPsController &lt;br&gt;호츌" style="rounded=0;whiteSpace=wrap;html=1;fillColor=#dae8fc;strokeColor=#6c8ebf;" vertex="1" parent="WIyWlLk6GJQsqaUBKTNV-1">
          <mxGeometry x="229" y="312" width="120" height="60" as="geometry" />
        </mxCell>
        <mxCell id="4txpGATy8WF8CyshaqeH-17" value="Bundle/Controller/Admin/Goods/GoodsPsController.php" style="text;html=1;strokeColor=none;fillColor=none;align=center;verticalAlign=middle;whiteSpace=wrap;rounded=0;" vertex="1" parent="WIyWlLk6GJQsqaUBKTNV-1">
          <mxGeometry x="259" y="288" width="60" height="30" as="geometry" />
        </mxCell>
        <mxCell id="4txpGATy8WF8CyshaqeH-19" value="스네이크 케이스 &amp;gt; 카멜 케이스&amp;nbsp;" style="text;html=1;strokeColor=none;fillColor=none;align=center;verticalAlign=middle;whiteSpace=wrap;rounded=0;fontColor=#808080;" vertex="1" parent="WIyWlLk6GJQsqaUBKTNV-1">
          <mxGeometry x="409" y="212" width="160" height="30" as="geometry" />
        </mxCell>
        <mxCell id="4txpGATy8WF8CyshaqeH-20" value="" style="curved=1;endArrow=classic;html=1;rounded=0;fontColor=#808080;" edge="1" parent="WIyWlLk6GJQsqaUBKTNV-1">
          <mxGeometry width="50" height="50" relative="1" as="geometry">
            <mxPoint x="389" y="292" as="sourcePoint" />
            <mxPoint x="409" y="227" as="targetPoint" />
            <Array as="points">
              <mxPoint x="329" y="262" />
            </Array>
          </mxGeometry>
        </mxCell>
        <mxCell id="4txpGATy8WF8CyshaqeH-26" style="edgeStyle=orthogonalEdgeStyle;rounded=0;orthogonalLoop=1;jettySize=auto;html=1;exitX=0.5;exitY=1;exitDx=0;exitDy=0;" edge="1" parent="WIyWlLk6GJQsqaUBKTNV-1" source="4txpGATy8WF8CyshaqeH-22">
          <mxGeometry relative="1" as="geometry">
            <mxPoint x="489" y="417" as="targetPoint" />
          </mxGeometry>
        </mxCell>
        <mxCell id="4txpGATy8WF8CyshaqeH-36" value="Yes" style="edgeLabel;html=1;align=center;verticalAlign=middle;resizable=0;points=[];" vertex="1" connectable="0" parent="4txpGATy8WF8CyshaqeH-26">
          <mxGeometry x="-0.0857" relative="1" as="geometry">
            <mxPoint x="15" as="offset" />
          </mxGeometry>
        </mxCell>
        <mxCell id="4txpGATy8WF8CyshaqeH-28" value="" style="edgeStyle=orthogonalEdgeStyle;rounded=0;orthogonalLoop=1;jettySize=auto;html=1;" edge="1" parent="WIyWlLk6GJQsqaUBKTNV-1" source="4txpGATy8WF8CyshaqeH-22" target="4txpGATy8WF8CyshaqeH-27">
          <mxGeometry relative="1" as="geometry" />
        </mxCell>
        <mxCell id="4txpGATy8WF8CyshaqeH-22" value="$postValue[&#39;mode&#39;] &lt;br&gt;값이 register인가?" style="rhombus;whiteSpace=wrap;html=1;shadow=0;fontFamily=Helvetica;fontSize=12;align=center;strokeWidth=1;spacing=6;spacingTop=-4;" vertex="1" parent="WIyWlLk6GJQsqaUBKTNV-1">
          <mxGeometry x="414" y="307" width="150" height="70" as="geometry" />
        </mxCell>
        <mxCell id="4txpGATy8WF8CyshaqeH-42" value="" style="edgeStyle=orthogonalEdgeStyle;rounded=0;orthogonalLoop=1;jettySize=auto;html=1;" edge="1" parent="WIyWlLk6GJQsqaUBKTNV-1" source="4txpGATy8WF8CyshaqeH-25" target="4txpGATy8WF8CyshaqeH-41">
          <mxGeometry relative="1" as="geometry" />
        </mxCell>
        <mxCell id="4txpGATy8WF8CyshaqeH-47" style="edgeStyle=orthogonalEdgeStyle;rounded=0;orthogonalLoop=1;jettySize=auto;html=1;exitX=0.5;exitY=1;exitDx=0;exitDy=0;" edge="1" parent="WIyWlLk6GJQsqaUBKTNV-1" source="4txpGATy8WF8CyshaqeH-25" target="4txpGATy8WF8CyshaqeH-45">
          <mxGeometry relative="1" as="geometry" />
        </mxCell>
        <mxCell id="4txpGATy8WF8CyshaqeH-25" value="saveInfoGoods&amp;nbsp;&lt;br&gt;함수 호츌" style="rounded=0;whiteSpace=wrap;html=1;fillColor=#dae8fc;strokeColor=#6c8ebf;" vertex="1" parent="WIyWlLk6GJQsqaUBKTNV-1">
          <mxGeometry x="429" y="437" width="120" height="60" as="geometry" />
        </mxCell>
        <mxCell id="4txpGATy8WF8CyshaqeH-27" value="복사, 삭제 등 기능&lt;br&gt;동작" style="whiteSpace=wrap;html=1;shadow=0;strokeWidth=1;spacing=6;spacingTop=-4;" vertex="1" parent="WIyWlLk6GJQsqaUBKTNV-1">
          <mxGeometry x="599" y="312" width="120" height="60" as="geometry" />
        </mxCell>
        <mxCell id="4txpGATy8WF8CyshaqeH-34" value="No" style="text;html=1;align=center;verticalAlign=middle;resizable=0;points=[];autosize=1;strokeColor=none;fillColor=none;" vertex="1" parent="WIyWlLk6GJQsqaUBKTNV-1">
          <mxGeometry x="559" y="320" width="40" height="30" as="geometry" />
        </mxCell>
        <mxCell id="4txpGATy8WF8CyshaqeH-39" value="Bundle/Component/Goods/GoodsAdmin.php" style="text;html=1;strokeColor=none;fillColor=none;align=center;verticalAlign=middle;whiteSpace=wrap;rounded=0;" vertex="1" parent="WIyWlLk6GJQsqaUBKTNV-1">
          <mxGeometry x="459" y="411" width="60" height="30" as="geometry" />
        </mxCell>
        <mxCell id="4txpGATy8WF8CyshaqeH-41" value="$arrData index마다 적합한 타입 값으로&lt;br&gt;대입" style="whiteSpace=wrap;html=1;shadow=0;strokeWidth=1;spacing=6;spacingTop=-4;" vertex="1" parent="WIyWlLk6GJQsqaUBKTNV-1">
          <mxGeometry x="599" y="437" width="120" height="60" as="geometry" />
        </mxCell>
        <mxCell id="4txpGATy8WF8CyshaqeH-55" value="" style="edgeStyle=orthogonalEdgeStyle;rounded=0;orthogonalLoop=1;jettySize=auto;html=1;" edge="1" parent="WIyWlLk6GJQsqaUBKTNV-1" source="4txpGATy8WF8CyshaqeH-44" target="4txpGATy8WF8CyshaqeH-54">
          <mxGeometry relative="1" as="geometry" />
        </mxCell>
        <mxCell id="4txpGATy8WF8CyshaqeH-44" value="goodsNo 처리를 위한&lt;br&gt;doGoodsNoInsert&lt;br&gt;함수 동작" style="whiteSpace=wrap;html=1;shadow=0;strokeWidth=1;spacing=6;spacingTop=-4;fillColor=#fff2cc;strokeColor=#d6b656;" vertex="1" parent="WIyWlLk6GJQsqaUBKTNV-1">
          <mxGeometry x="429" y="637" width="120" height="60" as="geometry" />
        </mxCell>
        <mxCell id="4txpGATy8WF8CyshaqeH-49" style="edgeStyle=orthogonalEdgeStyle;rounded=0;orthogonalLoop=1;jettySize=auto;html=1;exitX=0.5;exitY=1;exitDx=0;exitDy=0;entryX=0.5;entryY=0;entryDx=0;entryDy=0;" edge="1" parent="WIyWlLk6GJQsqaUBKTNV-1" source="4txpGATy8WF8CyshaqeH-45" target="4txpGATy8WF8CyshaqeH-44">
          <mxGeometry relative="1" as="geometry" />
        </mxCell>
        <mxCell id="4txpGATy8WF8CyshaqeH-52" value="Yes" style="edgeLabel;html=1;align=center;verticalAlign=middle;resizable=0;points=[];" vertex="1" connectable="0" parent="4txpGATy8WF8CyshaqeH-49">
          <mxGeometry x="0.0667" y="5" relative="1" as="geometry">
            <mxPoint x="12" y="-1" as="offset" />
          </mxGeometry>
        </mxCell>
        <mxCell id="4txpGATy8WF8CyshaqeH-45" value="$arrData[&#39;mode&#39;]&lt;br&gt;값이 register인가?" style="rhombus;whiteSpace=wrap;html=1;shadow=0;fontFamily=Helvetica;fontSize=12;align=center;strokeWidth=1;spacing=6;spacingTop=-4;" vertex="1" parent="WIyWlLk6GJQsqaUBKTNV-1">
          <mxGeometry x="414" y="537" width="150" height="70" as="geometry" />
        </mxCell>
        <mxCell id="4txpGATy8WF8CyshaqeH-57" value="" style="edgeStyle=orthogonalEdgeStyle;rounded=0;orthogonalLoop=1;jettySize=auto;html=1;" edge="1" parent="WIyWlLk6GJQsqaUBKTNV-1" source="4txpGATy8WF8CyshaqeH-54" target="4txpGATy8WF8CyshaqeH-56">
          <mxGeometry relative="1" as="geometry" />
        </mxCell>
        <mxCell id="4txpGATy8WF8CyshaqeH-54" value="&amp;nbsp;getNewGoodsno&lt;br&gt;함수 동작" style="whiteSpace=wrap;html=1;shadow=0;strokeWidth=1;spacing=6;spacingTop=-4;" vertex="1" parent="WIyWlLk6GJQsqaUBKTNV-1">
          <mxGeometry x="259" y="637" width="120" height="60" as="geometry" />
        </mxCell>
        <mxCell id="4txpGATy8WF8CyshaqeH-59" value="Yes&lt;br&gt;" style="edgeStyle=orthogonalEdgeStyle;rounded=0;orthogonalLoop=1;jettySize=auto;html=1;" edge="1" parent="WIyWlLk6GJQsqaUBKTNV-1">
          <mxGeometry x="-0.1429" y="9" relative="1" as="geometry">
            <mxPoint x="394" y="761" as="sourcePoint" />
            <mxPoint x="429" y="761" as="targetPoint" />
            <mxPoint as="offset" />
          </mxGeometry>
        </mxCell>
        <mxCell id="4txpGATy8WF8CyshaqeH-61" value="" style="edgeStyle=orthogonalEdgeStyle;rounded=0;orthogonalLoop=1;jettySize=auto;html=1;" edge="1" parent="WIyWlLk6GJQsqaUBKTNV-1" source="4txpGATy8WF8CyshaqeH-56" target="4txpGATy8WF8CyshaqeH-60">
          <mxGeometry relative="1" as="geometry" />
        </mxCell>
        <mxCell id="4txpGATy8WF8CyshaqeH-62" value="No" style="edgeLabel;html=1;align=center;verticalAlign=middle;resizable=0;points=[];" vertex="1" connectable="0" parent="4txpGATy8WF8CyshaqeH-61">
          <mxGeometry x="-0.6383" y="-2" relative="1" as="geometry">
            <mxPoint x="12" y="4" as="offset" />
          </mxGeometry>
        </mxCell>
        <mxCell id="4txpGATy8WF8CyshaqeH-56" value="getGoodsInfo를 통해&lt;br&gt;가져온 상품번호 값이&lt;br&gt;존재하는가?" style="rhombus;whiteSpace=wrap;html=1;shadow=0;fontFamily=Helvetica;fontSize=12;align=center;strokeWidth=1;spacing=6;spacingTop=-4;" vertex="1" parent="WIyWlLk6GJQsqaUBKTNV-1">
          <mxGeometry x="244" y="732" width="150" height="60" as="geometry" />
        </mxCell>
        <mxCell id="4txpGATy8WF8CyshaqeH-70" value="" style="edgeStyle=orthogonalEdgeStyle;rounded=0;orthogonalLoop=1;jettySize=auto;html=1;" edge="1" parent="WIyWlLk6GJQsqaUBKTNV-1" source="4txpGATy8WF8CyshaqeH-58" target="4txpGATy8WF8CyshaqeH-67">
          <mxGeometry relative="1" as="geometry" />
        </mxCell>
        <mxCell id="4txpGATy8WF8CyshaqeH-58" value="기존 상품 코드 + 1" style="whiteSpace=wrap;html=1;shadow=0;strokeWidth=1;spacing=6;spacingTop=-4;" vertex="1" parent="WIyWlLk6GJQsqaUBKTNV-1">
          <mxGeometry x="429" y="732" width="120" height="60" as="geometry" />
        </mxCell>
        <mxCell id="4txpGATy8WF8CyshaqeH-69" value="" style="edgeStyle=orthogonalEdgeStyle;rounded=0;orthogonalLoop=1;jettySize=auto;html=1;" edge="1" parent="WIyWlLk6GJQsqaUBKTNV-1" source="4txpGATy8WF8CyshaqeH-60" target="4txpGATy8WF8CyshaqeH-67">
          <mxGeometry relative="1" as="geometry" />
        </mxCell>
        <mxCell id="4txpGATy8WF8CyshaqeH-60" value="생성 후 초기화" style="whiteSpace=wrap;html=1;shadow=0;strokeWidth=1;spacing=6;spacingTop=-4;" vertex="1" parent="WIyWlLk6GJQsqaUBKTNV-1">
          <mxGeometry x="259" y="832" width="120" height="60" as="geometry" />
        </mxCell>
        <mxCell id="4txpGATy8WF8CyshaqeH-75" value="" style="edgeStyle=orthogonalEdgeStyle;rounded=0;orthogonalLoop=1;jettySize=auto;html=1;" edge="1" parent="WIyWlLk6GJQsqaUBKTNV-1" source="4txpGATy8WF8CyshaqeH-63" target="4txpGATy8WF8CyshaqeH-74">
          <mxGeometry relative="1" as="geometry" />
        </mxCell>
        <mxCell id="4txpGATy8WF8CyshaqeH-63" value="상품 번호를&lt;br&gt;DB_GOODS&lt;br&gt;(==es_goods) &lt;br&gt;테이블에 저장" style="whiteSpace=wrap;html=1;shadow=0;strokeWidth=1;spacing=6;spacingTop=-4;fillColor=#d5e8d4;strokeColor=#82b366;" vertex="1" parent="WIyWlLk6GJQsqaUBKTNV-1">
          <mxGeometry x="429" y="932" width="120" height="80" as="geometry" />
        </mxCell>
        <mxCell id="4txpGATy8WF8CyshaqeH-71" value="" style="edgeStyle=orthogonalEdgeStyle;rounded=0;orthogonalLoop=1;jettySize=auto;html=1;" edge="1" parent="WIyWlLk6GJQsqaUBKTNV-1" source="4txpGATy8WF8CyshaqeH-67" target="4txpGATy8WF8CyshaqeH-63">
          <mxGeometry relative="1" as="geometry" />
        </mxCell>
        <mxCell id="4txpGATy8WF8CyshaqeH-67" value="newGoodsNo&lt;br&gt;반환" style="ellipse;whiteSpace=wrap;html=1;aspect=fixed;" vertex="1" parent="WIyWlLk6GJQsqaUBKTNV-1">
          <mxGeometry x="456.5" y="829.5" width="65" height="65" as="geometry" />
        </mxCell>
        <mxCell id="4txpGATy8WF8CyshaqeH-73" value="&lt;div style=&quot;background-color:#1e1f22;color:#bcbec4&quot;&gt;&lt;pre style=&quot;font-family:&#39;JetBrains Mono&#39;,monospace;font-size:9.8pt;&quot;&gt;&lt;span style=&quot;color:#9876aa;&quot;&gt;$this&lt;/span&gt;-&amp;gt;&lt;span style=&quot;color:#c77dbb;&quot;&gt;db&lt;/span&gt;-&amp;gt;&lt;span style=&quot;color:#57aaf7;&quot;&gt;set_insert_db&lt;/span&gt;(&lt;span style=&quot;color:#9876aa;font-style:italic;&quot;&gt;DB_GOODS&lt;/span&gt;, &lt;span style=&quot;color:#6aab73;&quot;&gt;&#39;goodsNo&#39;&lt;/span&gt;, &lt;span style=&quot;color:#cf8e6d;&quot;&gt;array&lt;/span&gt;(&lt;span style=&quot;color:#6aab73;&quot;&gt;&#39;i&#39;&lt;/span&gt;, &lt;span style=&quot;color:#9876aa;&quot;&gt;$newGoodsNo&lt;/span&gt;), &lt;span style=&quot;color:#6aab73;&quot;&gt;&#39;y&#39;&lt;/span&gt;);&lt;/pre&gt;&lt;/div&gt;" style="text;whiteSpace=wrap;html=1;" vertex="1" parent="WIyWlLk6GJQsqaUBKTNV-1">
          <mxGeometry x="209" y="982" width="560" height="70" as="geometry" />
        </mxCell>
        <mxCell id="4txpGATy8WF8CyshaqeH-74" value="끝" style="ellipse;whiteSpace=wrap;html=1;" vertex="1" parent="WIyWlLk6GJQsqaUBKTNV-1">
          <mxGeometry x="431" y="1052" width="115" height="60" as="geometry" />
        </mxCell>
      </root>
    </mxGraphModel>
  </diagram>
</mxfile>
